<?xml version="1.0" encoding="utf-8"?>
<!-- Generator: Adobe Illustrator 16.0.0, SVG Export Plug-In . SVG Version: 6.00 Build 0)  -->
<!DOCTYPE svg PUBLIC "-//W3C//DTD SVG 1.1//EN" "http://www.w3.org/Graphics/SVG/1.1/DTD/svg11.dtd">
<svg version="1.1" id="Layer_1" xmlns="http://www.w3.org/2000/svg" xmlns:xlink="http://www.w3.org/1999/xlink" x="0px" y="0px"
	 width="1028.98px" height="137.708px" viewBox="0 0 1028.98 137.708" enable-background="new 0 0 1028.98 137.708"
	 xml:space="preserve">
<rect x="0.021" fill="none" width="1028.978" height="137.708"/>
<g>
	<text transform="matrix(0.9 0 0 1 913.8289 115.7563)" fill="#221E1F" font-family="'YDVYGOStd12-KSCpc-EUC-H'" font-size="9.5">2017년 8월 16일 수요일 (4203호)</text>
</g>
<text transform="matrix(0.95 0 0 1 0.4792 116.188)" fill="#221E1F" font-family="'YDVYGOStd14-KSCpc-EUC-H'" font-size="9.5">대표전화</text>
<text transform="matrix(0.95 0 0 1 33.6912 116.188)" fill="#221E1F" font-family="'YDVYGOStd12-KSCpc-EUC-H'" font-size="9.5"> </text>
<text transform="matrix(1 0 0 1 36.8499 116.188)" fill="#221E1F" font-family="'YDVYGOStd12-KSCpc-EUC-H'" font-size="9.5">02-324-4141</text>
<text transform="matrix(1 0 0 1 90.9324 116.188)" fill="#221E1F" font-family="'YDVYGOStd11-KSCpc-EUC-H'" font-size="9.5">  </text>
<text transform="matrix(0.95 0 0 1 97.5823 116.188)" fill="#221E1F" font-family="'YDVYGOStd11-KSCpc-EUC-H'" font-size="9.5"> </text>
<text transform="matrix(0.95 0 0 1 100.741 116.188)" fill="#221E1F" font-family="'YDVYGOStd14-KSCpc-EUC-H'" font-size="9.5">구독</text>
<text transform="matrix(0.95 0 0 1 117.3469 116.188)" fill="#221E1F" font-family="'YDVYGOStd12-KSCpc-EUC-H'" font-size="9.5"> </text>
<text transform="matrix(1 0 0 1 120.5056 116.188)" fill="#221E1F" font-family="'YDVYGOStd12-KSCpc-EUC-H'" font-size="9.5">080-850-0041</text>
<g>
	<rect x="0.479" y="11.989" fill="#FFFFFF" width="184.3" height="72.251"/>
	<polyline fill="none" stroke="#AC1F50" stroke-width="0.993" points="72.981,12.919 183.744,12.919 183.744,83.694 0.975,83.694 
		0.975,36.212 	"/>
	<path fill="#AC1F50" d="M8.863,21.825H1.126v-8.023h1.769v2.511h4.221v-2.511h1.748V21.825 M13.635,30.124H2.834v-6.847h1.769
		v1.844h7.266v-1.844h1.767V30.124z M2.894,20.236h4.222v-2.335H2.894V20.236z M4.602,28.495h7.266V26.73H4.602V28.495z
		 M15.854,18.765h-2.22v3.55h-1.767v-9.259h1.767v4.061h2.22V18.765z"/>
	<rect x="19.239" y="20.497" fill="#AC1F50" width="2.122" height="2.354"/>
	<path fill="#AC1F50" d="M32.874,20.492c-0.844,0.745-1.815,1.118-2.916,1.118c-1.086,0-2.055-0.369-2.906-1.109
		c-0.851-0.738-1.275-1.709-1.275-2.913c0-1.203,0.419-2.171,1.257-2.903c0.838-0.733,1.813-1.099,2.925-1.099
		c1.101,0,2.072,0.366,2.916,1.099c0.846,0.732,1.268,1.7,1.268,2.903C34.141,18.779,33.719,19.746,32.874,20.492 M31.627,15.95
		c-0.483-0.438-1.04-0.657-1.669-0.657c-0.628,0-1.188,0.222-1.679,0.667c-0.49,0.445-0.736,0.975-0.736,1.589
		c0,0.641,0.246,1.187,0.736,1.638c0.491,0.452,1.051,0.677,1.679,0.677c0.629,0,1.186-0.225,1.669-0.677
		c0.485-0.451,0.728-0.997,0.728-1.638C32.354,16.921,32.112,16.388,31.627,15.95z M28.054,30.124v-4.336h9.269v-1.334h-9.269v-1.53
		h11.213v4.335h-9.249v1.335h9.681v1.53H28.054z M39.286,22.159h-1.768v-9.102h1.768V22.159z"/>
	<rect x="45.042" y="20.497" fill="#AC1F50" width="2.122" height="2.354"/>
	<path fill="#AC1F50" d="M61.198,21.252v2.511h4.87V30.1H54.462v-6.337h4.851v-2.511h-6.833v-1.668h4.615
		c0.104-0.418,0.228-1.033,0.371-1.844c0.145-0.81,0.257-1.595,0.335-2.354h-3.73v-1.646h5.772
		c-0.078,1.033-0.206,2.112-0.383,3.237c-0.177,1.124-0.37,1.994-0.58,2.608h4.91c0.065-0.405,0.16-1.006,0.285-1.804
		c0.124-0.798,0.226-1.596,0.304-2.395h-3.928v-1.646h5.931c-0.052,0.653-0.153,1.604-0.304,2.854
		c-0.151,1.249-0.325,2.246-0.521,2.991h2.475v1.668H61.198 M64.32,25.411h-8.11v3.041h8.11V25.411z"/>
	<path fill="#221E1F" d="M19.058,57.713h-6.819v-0.75h3.003v-1.499h-2.074v-4.161h0.778v1.356h3.414v-1.356h0.786v4.161h-2.101
		v1.499h3.013V57.713 M13.946,54.713h3.415v-1.304h-3.415V54.713z"/>
	<path fill="#221E1F" d="M23.043,55.747v2.947H22.24v-2.947h-3.012v-0.75h6.827v0.75H23.043 M21.618,53.556
		c-0.503,0.325-1.012,0.555-1.522,0.691l-0.475-0.615c1.084-0.232,1.79-0.618,2.118-1.161c0.327-0.54,0.491-0.95,0.491-1.231v-0.401
		h0.823v0.401c0,0.281,0.152,0.679,0.46,1.197c0.307,0.516,1.022,0.916,2.148,1.195l-0.474,0.615
		c-0.416-0.059-0.897-0.268-1.442-0.625c-0.546-0.355-0.917-0.773-1.114-1.25C22.46,52.837,22.121,53.233,21.618,53.556z"/>
	<path fill="#221E1F" d="M31.113,57.177c-0.238,0.029-0.639,0.066-1.202,0.111c-0.562,0.045-1.181,0.068-1.854,0.068h-1.779v-0.761
		h1.966v-1.534c-0.47-0.084-0.85-0.302-1.139-0.652c-0.289-0.352-0.435-0.762-0.435-1.232c0-0.529,0.183-0.982,0.545-1.357
		c0.364-0.375,0.835-0.562,1.413-0.562c0.571,0,1.041,0.204,1.407,0.61c0.367,0.41,0.55,0.847,0.55,1.318
		c0,0.459-0.143,0.861-0.429,1.213c-0.286,0.353-0.658,0.572-1.117,0.662v1.5c0.214,0,0.539-0.019,0.975-0.055
		c0.435-0.036,0.801-0.074,1.099-0.115V57.177 M29.808,53.177c0-0.314-0.103-0.588-0.309-0.816
		c-0.205-0.229-0.496-0.344-0.871-0.344c-0.382,0-0.672,0.114-0.871,0.344c-0.199,0.229-0.3,0.502-0.3,0.816
		c0,0.314,0.102,0.588,0.305,0.816c0.202,0.229,0.493,0.344,0.876,0.344c0.375,0,0.663-0.114,0.866-0.344
		C29.707,53.765,29.808,53.491,29.808,53.177z M31.426,50.838h0.778v3.286h1.009v0.803h-1.009v3.768h-0.778V50.838z"/>
	<path fill="#221E1F" d="M40.589,55.337c-0.334-0.137-0.654-0.352-0.961-0.646c-0.307-0.295-0.562-0.605-0.764-0.934
		c-0.084,0.328-0.306,0.667-0.666,1.018c-0.361,0.352-0.729,0.621-1.104,0.812l-0.581-0.669c0.655-0.3,1.143-0.675,1.462-1.13
		c0.317-0.455,0.478-0.954,0.478-1.495v-0.224h-1.438v-0.75h3.718v0.75h-1.439v0.224c0,0.511,0.156,0.97,0.47,1.375
		c0.312,0.403,0.742,0.726,1.292,0.964L40.589,55.337 M37.845,58.517v-2.51h0.786v1.76h4.264v0.75H37.845z M42.742,56.524h-0.777
		v-5.688h0.777V56.524z"/>
	<path fill="#221E1F" d="M50.119,57.713H43.3v-0.75h3.004v-1.499h-2.074v-4.161h0.777v1.356h3.414v-1.356h0.786v4.161h-2.1v1.499
		h3.012V57.713 M45.007,54.713h3.414v-1.304h-3.414V54.713z"/>
	<path fill="#221E1F" d="M57.117,55.159h-6.828v-0.678h6.828V55.159z M51.174,53.918v-1.759h4.147v-0.5h-4.147v-0.651h4.987v1.749
		h-4.156v0.51h4.309v0.651H51.174z M56.313,58.597h-5.14v-1.759h4.156v-0.5h-4.156v-0.651h4.987v1.75h-4.156v0.508h4.309V58.597z"/>
	<path fill="#221E1F" d="M65.074,54.532c-0.227,0.056-0.562,0.115-1.01,0.181c-0.447,0.063-0.931,0.103-1.448,0.116l-1.689,0.017
		v-3.679h0.77v2.929l0.929-0.019c0.459-0.012,0.915-0.045,1.367-0.102c0.453-0.057,0.814-0.115,1.082-0.174V54.532 M66.548,58.604
		h-4.869v-2.947h4.869V58.604z M62.446,57.854h3.325v-1.445h-3.325V57.854z M66.566,55.257h-0.777v-2.385h-2.038v-0.75h2.038v-1.284
		h0.777V55.257z"/>
	<path fill="#221E1F" d="M73.523,58.694h-0.777v-4.045h-1.332c-0.041,0.785-0.226,1.412-0.554,1.879
		c-0.328,0.469-0.759,0.701-1.295,0.701c-0.561,0-1.009-0.263-1.345-0.789c-0.338-0.527-0.506-1.232-0.506-2.113
		c0-0.887,0.168-1.592,0.506-2.115c0.336-0.523,0.784-0.786,1.345-0.786c0.512,0,0.931,0.218,1.255,0.651
		c0.325,0.436,0.517,1.025,0.577,1.769h1.349v-3.009h0.777V58.694 M70.655,54.319c0-0.565-0.094-1.059-0.282-1.478
		c-0.187-0.42-0.454-0.63-0.8-0.63c-0.345,0-0.614,0.212-0.804,0.634c-0.191,0.423-0.286,0.914-0.286,1.474
		c0,0.571,0.095,1.067,0.286,1.486c0.189,0.42,0.459,0.629,0.804,0.629c0.346,0,0.613-0.209,0.8-0.629
		C70.561,55.387,70.655,54.891,70.655,54.319z"/>
	<path fill="#221E1F" d="M15.051,69.659c-0.337,0.045-0.653,0.072-0.95,0.084l-1.226,0.018v-5.258h0.77v4.445l0.74-0.018
		c0.191-0.006,0.432-0.029,0.721-0.07c0.289-0.043,0.502-0.078,0.639-0.107v0.803C15.618,69.579,15.388,69.613,15.051,69.659
		 M17.808,71.59v-4.062h-0.885v3.706h-0.751v-7.323h0.751v2.822h0.885v-3h0.751v7.857H17.808L17.808,71.59z"/>
	<path fill="#221E1F" d="M25.83,67.117c-0.373,0.34-0.8,0.51-1.283,0.51c-0.476,0-0.901-0.17-1.277-0.504
		c-0.375-0.338-0.563-0.779-0.563-1.326s0.186-0.988,0.556-1.32c0.368-0.336,0.798-0.5,1.285-0.5c0.483,0,0.91,0.164,1.283,0.5
		c0.372,0.332,0.559,0.773,0.559,1.32C26.388,66.337,26.202,66.779,25.83,67.117 M25.28,65.05c-0.214-0.197-0.459-0.299-0.733-0.299
		c-0.273,0-0.518,0.102-0.731,0.303c-0.215,0.203-0.322,0.445-0.322,0.725c0,0.291,0.107,0.539,0.322,0.744
		c0.214,0.207,0.458,0.309,0.731,0.309c0.274,0,0.52-0.102,0.733-0.309c0.215-0.205,0.322-0.453,0.322-0.744
		C25.602,65.494,25.495,65.25,25.28,65.05z M23.708,71.502v-1.975h4.075v-0.609h-4.075v-0.693h4.934v1.972h-4.059v0.607h4.245v0.697
		H23.708z M28.65,67.876h-0.778v-4.143h0.778V67.876z"/>
	<path fill="#221E1F" d="M36.15,67.742h-6.828v-0.686h6.828V67.742z M32.736,63.671c0.864,0,1.517,0.139,1.958,0.415
		c0.44,0.277,0.661,0.615,0.661,1.014c0,0.418-0.221,0.76-0.661,1.027c-0.441,0.27-1.094,0.402-1.958,0.402
		c-0.857,0-1.51-0.133-1.956-0.398c-0.447-0.264-0.671-0.604-0.671-1.021c0-0.41,0.224-0.754,0.671-1.027
		C31.226,63.81,31.879,63.671,32.736,63.671z M35.436,71.502h-5.229v-1.938h4.228v-0.57h-4.228v-0.67h5.059v1.891H31.03v0.609h4.406
		V71.502z M34.479,65.109c0-0.221-0.156-0.402-0.47-0.549c-0.312-0.147-0.739-0.219-1.281-0.219c-0.555,0-0.984,0.07-1.287,0.213
		c-0.304,0.145-0.456,0.326-0.456,0.545c0,0.221,0.158,0.404,0.473,0.555c0.316,0.148,0.748,0.223,1.296,0.223
		c0.537,0,0.958-0.074,1.266-0.223C34.326,65.503,34.479,65.324,34.479,65.109z"/>
	<path fill="#221E1F" d="M43.851,66.332h-4.264v-0.768h4.264V66.332z M43.61,68.689c0,0.465-0.174,0.888-0.523,1.265
		c-0.348,0.377-0.8,0.566-1.354,0.566c-0.561,0-1.017-0.186-1.367-0.559c-0.352-0.373-0.528-0.795-0.528-1.272
		c0-0.482,0.177-0.902,0.528-1.264c0.351-0.359,0.81-0.541,1.376-0.541c0.548,0,0.997,0.182,1.345,0.537
		C43.436,67.779,43.61,68.201,43.61,68.689z M42.85,64.869h-2.252v-0.75h2.252V64.869z M42.814,68.699
		c0-0.287-0.093-0.535-0.281-0.746c-0.188-0.211-0.451-0.318-0.791-0.318c-0.345,0-0.612,0.109-0.8,0.322
		c-0.188,0.215-0.281,0.461-0.281,0.742c0,0.273,0.094,0.518,0.281,0.73c0.188,0.215,0.455,0.323,0.8,0.323
		c0.34,0,0.604-0.108,0.791-0.323C42.721,69.216,42.814,68.972,42.814,68.699z M44.602,63.733h0.776v3.188h1.028v0.812h-1.028v3.857
		h-0.776V63.733z"/>
	<path fill="#221E1F" d="M50.303,65.822h1.465v-2.088h0.777v7.856h-0.777v-3.035h-1.465v1.357h-3.244V64.69h3.244V65.822
		 M47.836,69.162h1.689v-3.723h-1.689V69.162z M50.303,67.804h1.465v-1.232h-1.465V67.804z"/>
	<path fill="#221E1F" d="M59.314,69.659c-0.337,0.045-0.654,0.072-0.952,0.084l-1.224,0.018v-5.258h0.768v4.445l0.742-0.018
		c0.19-0.006,0.431-0.029,0.72-0.07c0.289-0.043,0.502-0.078,0.639-0.107v0.803C59.881,69.579,59.651,69.613,59.314,69.659
		 M62.071,71.59v-4.062h-0.884v3.706h-0.751v-7.323h0.751v2.822h0.884v-3h0.751v7.857H62.071L62.071,71.59z"/>
	<path fill="#221E1F" d="M66.986,67.117c-0.373,0.34-0.8,0.51-1.283,0.51c-0.476,0-0.903-0.17-1.278-0.504
		c-0.375-0.338-0.562-0.779-0.562-1.326s0.185-0.988,0.554-1.32c0.37-0.336,0.799-0.5,1.287-0.5c0.483,0,0.91,0.164,1.283,0.5
		c0.372,0.332,0.558,0.773,0.558,1.32C67.544,66.337,67.358,66.779,66.986,67.117 M66.436,65.05
		c-0.214-0.197-0.459-0.299-0.733-0.299c-0.273,0-0.519,0.102-0.732,0.303c-0.215,0.203-0.321,0.445-0.321,0.725
		c0,0.291,0.106,0.539,0.321,0.744c0.214,0.207,0.459,0.309,0.732,0.309c0.274,0,0.52-0.102,0.733-0.309
		c0.214-0.205,0.321-0.453,0.321-0.744C66.758,65.494,66.65,65.25,66.436,65.05z M64.863,71.502v-1.975h4.075v-0.609h-4.075v-0.693
		h4.933v1.972h-4.057v0.607h4.245v0.697H64.863z M69.805,67.876h-0.777v-4.143h0.777V67.876z"/>
	<path fill="#221E1F" d="M77.307,67.742h-6.828v-0.686h6.828V67.742z M73.893,63.671c0.863,0,1.517,0.139,1.957,0.415
		c0.44,0.277,0.662,0.615,0.662,1.014c0,0.418-0.222,0.76-0.662,1.027c-0.44,0.27-1.094,0.402-1.957,0.402
		c-0.858,0-1.511-0.133-1.957-0.398c-0.447-0.264-0.67-0.604-0.67-1.021c0-0.41,0.223-0.754,0.67-1.027
		C72.383,63.81,73.035,63.671,73.893,63.671z M76.592,71.502h-5.228v-1.938h4.227v-0.57h-4.227v-0.67h5.058v1.891h-4.235v0.609
		h4.405V71.502z M75.636,65.109c0-0.221-0.157-0.402-0.47-0.549c-0.312-0.146-0.741-0.219-1.283-0.219
		c-0.554,0-0.982,0.07-1.286,0.213c-0.305,0.145-0.455,0.326-0.455,0.545c0,0.221,0.157,0.404,0.473,0.555
		c0.316,0.148,0.748,0.223,1.296,0.223c0.536,0,0.958-0.074,1.264-0.223C75.482,65.503,75.636,65.324,75.636,65.109z"/>
	<path fill="#221E1F" d="M84.846,70.027c-0.305-0.226-0.639-0.549-1.002-0.967c-0.363-0.422-0.596-0.832-0.696-1.236
		c-0.144,0.523-0.394,0.996-0.747,1.418c-0.354,0.422-0.707,0.766-1.06,1.028l-0.643-0.607c0.786-0.513,1.319-1.101,1.599-1.765
		c0.28-0.662,0.422-1.318,0.422-1.969v-0.59h-1.548v-0.775h3.969v0.775h-1.555v0.59c0,0.631,0.134,1.252,0.402,1.861
		c0.268,0.611,0.729,1.127,1.385,1.551L84.846,70.027 M86.99,71.59h-0.777v-7.857h0.777V71.59z"/>
	<path fill="#221E1F" d="M92.028,65.597h-4.325v-0.705h4.325V65.597z M89.866,68.427c-0.543,0-0.991-0.117-1.345-0.357
		c-0.355-0.236-0.532-0.531-0.532-0.883s0.177-0.643,0.532-0.875c0.354-0.232,0.809-0.35,1.362-0.35
		c0.566,0,1.019,0.115,1.358,0.344c0.339,0.23,0.509,0.521,0.509,0.871c0,0.357-0.171,0.656-0.514,0.893
		C90.895,68.31,90.438,68.427,89.866,68.427z M91.072,71.733c-0.84,0-1.481-0.143-1.921-0.426c-0.441-0.281-0.662-0.633-0.662-1.049
		c0-0.422,0.222-0.77,0.666-1.036c0.444-0.268,1.086-0.402,1.926-0.402c0.853,0,1.494,0.139,1.926,0.412
		c0.433,0.272,0.648,0.622,0.648,1.046c0,0.422-0.218,0.77-0.652,1.045C92.567,71.594,91.925,71.733,91.072,71.733z M91.01,64.392
		h-2.278v-0.706h2.278V64.392z M90.947,67.177c0-0.184-0.097-0.33-0.29-0.438c-0.194-0.105-0.452-0.16-0.773-0.16
		c-0.327,0-0.59,0.055-0.786,0.16c-0.197,0.107-0.296,0.256-0.296,0.447c0,0.184,0.098,0.328,0.291,0.434
		c0.193,0.104,0.457,0.156,0.791,0.156c0.321,0,0.579-0.055,0.773-0.162C90.85,67.509,90.947,67.363,90.947,67.177z M92.789,70.268
		c0-0.25-0.157-0.441-0.47-0.577c-0.313-0.135-0.729-0.2-1.247-0.2c-0.524,0-0.943,0.065-1.256,0.196s-0.468,0.321-0.468,0.571
		c0,0.238,0.156,0.432,0.473,0.576c0.315,0.146,0.736,0.219,1.26,0.219c0.506,0,0.917-0.07,1.233-0.215
		C92.631,70.696,92.789,70.506,92.789,70.268z M94.441,67.277h-0.965v1.375h-0.769v-4.929h0.769v1.152h0.965v0.723h-0.965v0.947
		h0.965V67.277z"/>
	<path fill="#221E1F" d="M99.11,65.669h-4.325v-0.715h4.325V65.669z M96.939,68.794c-0.562,0-1.01-0.137-1.351-0.41
		c-0.339-0.275-0.509-0.59-0.509-0.947c0-0.381,0.17-0.699,0.509-0.955c0.341-0.256,0.792-0.385,1.359-0.385
		c0.589,0,1.048,0.129,1.376,0.385s0.491,0.574,0.491,0.955c0,0.363-0.164,0.68-0.495,0.949
		C97.989,68.66,97.529,68.794,96.939,68.794z M100.754,71.403h-4.977v-2.171H96.6v1.429h4.153V71.403z M98.082,64.392h-2.278v-0.706
		h2.278V64.392z M97.976,67.427c0-0.201-0.087-0.367-0.26-0.498c-0.174-0.133-0.427-0.197-0.761-0.197
		c-0.333,0-0.588,0.064-0.764,0.197c-0.175,0.131-0.263,0.297-0.263,0.498c0,0.197,0.086,0.359,0.259,0.488
		c0.173,0.127,0.429,0.191,0.768,0.191c0.334,0,0.587-0.062,0.761-0.188C97.889,67.794,97.976,67.63,97.976,67.427z M101.524,66.822
		h-0.976v2.723H99.78v-5.821h0.769v2.321h0.976V66.822z"/>
	<path fill="#221E1F" d="M105.21,69.7c-0.446,0.059-0.935,0.092-1.466,0.098c-0.423,0.012-0.992,0.018-1.707,0.018v-5.188h3.344
		v0.76h-2.564v3.66c0.522,0,0.934-0.004,1.231-0.01c0.353-0.01,0.745-0.041,1.181-0.088c0.435-0.047,0.703-0.084,0.804-0.107v0.741
		C105.931,69.601,105.657,69.638,105.21,69.7 M107.346,63.733v3.143h1.027v0.785h-1.027v3.931h-0.778v-7.859H107.346z"/>
	<path fill="#AC1F50" d="M132.918,43.199c-2.554,2.115-4.686,4.458-6.225,6.945c-2.159,3.482-2.499,6.857-2.499,6.857
		c-0.529,4.72,0.883,9.116,4.527,12.217c4.371,3.72,10.958,4.753,17.938,3.369c6.902-1.371,13.933-5.067,19.344-10.583
		c2.488-2.535,4.38-5.213,5.705-7.885c-0.783,1.014-1.654,2.016-2.623,2.996c-5.23,5.295-12.083,8.831-18.844,10.125
		c-6.838,1.313-13.329,0.297-17.695-3.295c-2.212-1.821-3.627-4.105-4.296-6.641c0,0-1.992-5.893,3.905-13.211L132.918,43.199"/>
	<path fill="#AC1F50" d="M165.573,53.843c2.552-2.115,4.682-4.457,6.223-6.947c2.155-3.479,2.497-6.853,2.497-6.853
		c0.529-4.721-0.881-9.115-4.525-12.216c-4.373-3.721-10.959-4.758-17.938-3.371c-6.904,1.373-13.937,5.067-19.344,10.584
		c-2.488,2.534-4.384,5.214-5.707,7.884c0.783-1.013,1.655-2.016,2.623-2.997c5.23-5.294,12.081-8.829,18.846-10.125
		c6.834-1.312,13.329-0.295,17.695,3.296c2.209,1.821,3.625,4.103,4.296,6.642c0,0,1.99,5.891-3.906,13.21L165.573,53.843"/>
	<path fill="#AC1F50" d="M160.497,56.323c-3.405,0.541-2.1-3.608-2.1-3.608l2.111-7.282c1.292-4.741-1.985-6.111-1.985-6.111
		c-6.629-3.166-11.377,4.712-12.604,7.035l0.57-1.997c0.869-3.588-2.232-4.667-2.232-4.667c-5.312-1.873-11.339,3.506-11.339,3.506
		c2.014-1.731,5.037-2.445,5.037-2.445c3.406-0.543,2.1,3.606,2.1,3.606l-3.844,13.424h6.438l2.466-8.625
		c3.862-7.714,7.568-7.855,7.568-7.855c2.763,0.03,1.387,4.129,1.387,4.129l-2.11,7.282c-0.867,3.584,2.234,4.663,2.234,4.663
		c5.31,1.876,11.341-3.504,11.341-3.504C163.516,55.606,160.497,56.323,160.497,56.323"/>
</g>
<rect x="809.146" y="12.919" fill="none" stroke="#000000" stroke-miterlimit="10" width="219.264" height="71.322"/>
<g>
	<g>
		<g>
			<path d="M453.712,4.023c2.907,1.392,5.762,2.833,7.052,5.821c1.749,4.048,0.826,16.581,0.784,22.389h-11.756V10.74
				c-6.38-1.008-12.762-2.015-19.143-3.023c-0.299,1.008-0.597,2.015-0.896,3.023c3.036,1.37,5.785,2.922,7.053,6.045
				c1.003,2.474,0.672,6.468,0.672,9.852v19.03c-5.188,2.074-11.659,1.806-18.136,2.8c-1.835,0.282-5.793,0.471-6.717-0.448
				c-1.114-1.109-0.561-5.305-0.561-7.388V20.144c-6.493-0.672-12.986-1.344-19.479-2.015c-0.225,1.082-0.448,2.164-0.673,3.246
				c2.853,0.456,6.054,1.913,7.054,4.254c2.816,6.595-1.642,21.93,1.902,27.763c1.995,3.282,7.723,4.382,13.435,3.47
				c4.589-0.559,9.18-1.119,13.769-1.679c3.151-0.69,6.399-1.945,9.404-2.351v33.92h10.299c1.18-3.119,0.947-6.836,1.567-10.635
				c0.698-4.275,0.448-9.378,0.448-14.218V39.286h11.755v48.585h10.411c0.461-3.666,1.041-7.922,1.679-11.979
				c0.074-2.947,0.148-5.897,0.224-8.844V4.135C467.443,3.09,461.024,2.045,454.606,1C454.308,2.007,454.01,3.016,453.712,4.023z
				 M544.164,10.292c1.265,3.062,0.672,8.549,0.672,12.65v26.643h11.193c1.989-13.076,1.837-29.613,1.791-45.114
				c-6.754-1.12-13.508-2.239-20.263-3.358c-0.298,1.119-0.596,2.239-0.896,3.358v0.112C539.708,5.25,543.06,7.62,544.164,10.292z
				 M627.563,10.18c1.519,3.515,0.673,11.875,0.673,16.68v37.39h11.305c0.373-2.387,0.748-4.777,1.121-7.165
				c0.188-2.351,0.372-4.703,0.561-7.053V4.358c-6.718-1.082-13.436-2.164-20.151-3.246c-0.298,1.157-0.598,2.314-0.896,3.47
				C623.188,5.495,626.376,7.427,627.563,10.18z M310.756,39.958h7.053c0.964-9.289,1.042-20.85,1.007-31.569
				c-4.179-0.672-8.359-1.343-12.538-2.015c-0.188,0.708-0.374,1.417-0.561,2.127c5.231,2.105,5.147,4.292,5.039,11.53h-10.411
				v4.478h10.411V39.958z M368.632,8.389c-4.18-0.672-8.358-1.343-12.537-2.015c-0.188,0.708-0.374,1.417-0.562,2.127
				c1.925,0.79,3.931,1.763,4.702,3.694c0.983,2.458,0.336,7.109,0.336,10.188v22.501h7.052c0.337-2.165,0.673-4.33,1.008-6.494
				V25.852h8.844v-4.365h-8.844L368.632,8.389L368.632,8.389z M515.953,46.451c8.55-2.512,15.562-8.121,15.562-19.143
				c-0.002-3.936-0.872-7.004-2.354-9.516c-4.188-7.107-12.03-10.681-23.508-10.523c-2.239,0.336-4.477,0.672-6.717,1.008
				c-6.458,1.9-11.602,5.575-14.104,11.419C476.819,38.402,497.707,51.813,515.953,46.451z M496.475,22.942
				c1.056-3.043,3.366-5.519,6.268-6.716c1.083-0.262,2.165-0.523,3.247-0.784c16.788-0.223,17.11,21.44,2.912,23.845
				C499.82,40.824,493.564,31.323,496.475,22.942z M592.86,36.824c0.896-1.045,1.79-2.091,2.688-3.135
				c0.187-0.149,0.372-0.299,0.56-0.448c6.678,6.231,13.36,12.464,20.039,18.695h0.224c1.718-1.306,3.435-2.612,5.148-3.918
				c0.291-1.556-1.063-3.814-1.679-5.037c-1.497-2.974-2.812-5.826-5.935-7.165c-2.144-0.92-4.413-1.305-6.269-2.463
				c-2.425-1.903-4.852-3.807-7.276-5.709c-0.073-0.113-0.148-0.224-0.224-0.336c1.249-1.37,6.789-8.656,5.261-11.418
				c-0.657-1.356-3.285-1.85-4.703-2.463c-4.736-2.052-9.476-4.104-14.215-6.157c-0.711,1.231-1.419,2.463-2.127,3.694
				c7.085,3.767,7.193,9.062,3.806,16.792c-2.962,6.757-8.649,12.028-14.218,16.232l-7.163,5.262
				c1.306,1.604,2.611,3.209,3.919,4.813c1.488-0.007,5.53-3.202,6.939-4.142C583.23,46.191,588.7,41.991,592.86,36.824z
				 M671.337,36.935c2.583,1.99,7.753,1.567,12.312,1.567h27.65c4.821,0,10.667,0.763,12.092-2.687
				c0.63-1.529,0.334-4.228,0.334-6.27c0-4.929,1.078-17.993-1.567-19.926c-2.416-1.767-12.34-0.896-16.566-0.896h-43.436
				c-0.037,1.045-0.074,2.089-0.111,3.135C676.208,12.263,664.028,31.311,671.337,36.935z M682.194,15.778h19.253
				c2.885,0,6.835-0.396,8.845,0.559c0.898,2.397,0.902,12.046,0,14.441c-2.561,1.508-16.043,0.671-20.485,0.671
				c-1.974,0-5.222,0.434-6.604-0.335C681.882,30.458,681.481,18.336,682.194,15.778z M289.821,28.203
				c4.216,3.806,8.434,7.613,12.65,11.419c0.782-0.336,1.566-0.672,2.35-1.008c0.208-1-0.303-2.492-0.56-3.471
				c-1.537-5.869-2.879-4.284-7.276-6.828c-1.38-1.082-2.761-2.165-4.142-3.247c-0.149-0.187-0.3-0.373-0.448-0.56
				c0.818-1.521,4.502-6.428,3.247-8.844c-0.735-1.533-9.369-4.668-11.419-5.597c-0.485,0.746-0.971,1.493-1.455,2.239
				c1.22,1.263,2.797,1.973,3.471,3.806c0.941,2.562-0.501,5.634-1.23,7.388c-1.979,4.753-8.25,12.132-12.764,14.105
				c-0.208,0.705,1.696,2.688,2.463,3.247c3.536-1.908,6.604-4.394,9.628-6.829C286.164,32.084,287.993,30.144,289.821,28.203z
				 M350.72,24.957c0.75-1.281,3.492-6.53,2.239-8.396c-1.08-1.607-5.67-1.007-8.284-1.007c-4.413,0.001-10.181,0.705-13.994-0.336
				c-1.809-0.493-3.397-1.376-4.925-2.126c-0.373,0.448-0.747,0.896-1.12,1.343c0.174,1.369,3.775,4.24,4.812,5.597h14.555
				c-3.006,7.887-5.507,9.803-12.315,13.77c-1.679,0.858-3.358,1.717-5.037,2.575c-0.037,0.075-0.075,0.149-0.112,0.224
				c0.635,1.007,1.27,2.015,1.904,3.023c1.067,0.385,5.528-1.907,6.829-2.463C342.17,34.211,347.09,31.159,350.72,24.957z
				 M317.921,43.652c-1.491-1.01-8.006-0.448-10.523-0.448c-8.479,0-19.087,0.926-24.964-1.791
				c-0.336,0.597-0.672,1.194-1.009,1.791c1.903,1.456,3.807,2.911,5.71,4.366h17.239c1.544,0,4.753-0.482,5.821,0.224
				c0.953,0.629,0.572,10.458,0.561,12.649h7.053C318.082,57.958,320.218,45.21,317.921,43.652z M683.985,45.332
				c-12.757,0-25.292,0.199-34.145-3.359c-0.636,1.045-1.269,2.091-1.903,3.134c3.247,2.389,6.493,4.778,9.74,7.165h33.358v18.359
				h11.083c0.484-2.647,0.972-5.298,1.454-7.947c0.075-3.471,0.149-6.941,0.226-10.412h32.913v-6.94H683.985z M353.295,56.189
				c-2.659,0-6.47,0.426-8.396-0.447c-0.824-3.387-0.248-8.386-0.224-12.203c-4.217-0.224-8.435-0.448-12.65-0.671
				c-0.112,0.709-0.224,1.417-0.336,2.126c1.989,0.621,3.866,0.712,4.591,2.575c1.29,3.317-0.692,8.604,1.119,11.195
				c1.445,2.064,5.095,1.79,8.62,1.79c6.156-0.036,12.313-0.075,18.471-0.112c2.314-0.149,4.628-0.297,6.941-0.446
				c0.506-0.548,0.261-2.825,0.224-3.808L353.295,56.189L353.295,56.189z M519.089,80.372c-0.996-1.383-0.838-4.145-0.784-6.606
				h27.426c3.218,0,8.788,0.743,10.861-0.668c1.91-1.308,1.229-6.607,1.229-9.741c0-2.47,0.493-6.365-0.561-7.948
				c-1.529-2.307-10.946-1.457-15-1.457h-21.828c-3.844-0.074-7.688-0.149-11.531-0.224c-3.134-0.514-5.908-1.319-8.621-2.015
				c-0.446,0.932-0.896,1.866-1.344,2.797c3.098,2.165,6.195,4.33,9.292,6.495h27.314c2.76-0.002,6.84-0.471,8.845,0.447
				c0.578,1.481,0.624,3.818-0.225,5.037c-4.423,0.982-10.584,0.227-15.448,0.225h-31.121c-0.037,1.008-0.074,2.014-0.112,3.023
				c3.313,0.646,6.565,0.907,7.501,3.918c1.663,5.353-1.486,10.992,3.582,13.32c3.607,1.655,10.771,0.784,15.673,0.784
				c12.333,0,25.253-0.268,36.494-0.784v-6.271h-28.099C528.425,80.706,522.672,81.413,519.089,80.372z M602.487,80.594
				c-1.73-2.562-0.822-13.682-0.783-18.023c-6.756-0.337-13.51-0.672-20.262-1.009c-0.148,1.157-0.3,2.314-0.45,3.471
				c3.621,0.182,6.671,1.668,7.503,4.703c1.76,6.421-1.899,13.562,3.246,16.903c3.292,2.143,10.525,1.344,15.783,1.344h26.532
				c3.805-0.262,7.611-0.523,11.418-0.783v-6.27h-28.882C612.201,80.93,606.254,81.659,602.487,80.594z M682.864,80.594
				c-1.72-2.438-0.82-13.672-0.783-17.911c-6.789-0.373-13.584-0.747-20.373-1.121c-0.15,1.084-0.3,2.166-0.448,3.247
				c0.552,0.418,1.459,0.35,2.239,0.562c2.285,0.613,4.396,1.551,5.149,3.693c2.092,5.949-1.672,13.778,3.134,17.353
				c3.149,2.34,10.306,1.565,15.672,1.565h26.868c3.844-0.263,7.688-0.522,11.53-0.782v-6.271h-28.993
				C692.52,80.93,686.574,81.672,682.864,80.594z"/>
		</g>
	</g>
</g>
<line fill="none" stroke="#AC1F50" stroke-width="3" stroke-miterlimit="10" x1="0" y1="123.12" x2="1028.98" y2="123.12"/>
<g>
	<path fill="#AC1F50" d="M488.053,116.961h-1.995v-4.834c0-0.5-0.138-0.879-0.414-1.135c-0.235-0.215-0.537-0.322-0.905-0.322
		c-0.378,0-0.68,0.104-0.904,0.308c-0.286,0.256-0.43,0.642-0.43,1.149v4.834h-1.995v-7.994h1.949v0.736
		c0.521-0.551,1.188-0.828,1.995-0.828c0.389,0,0.744,0.062,1.065,0.185c0.322,0.123,0.595,0.297,0.821,0.522
		c0.296,0.295,0.506,0.631,0.629,1.004s0.185,0.795,0.185,1.267L488.053,116.961L488.053,116.961z"/>
	<path fill="#AC1F50" d="M496.155,116.961h-1.949v-0.69c-0.275,0.276-0.558,0.476-0.844,0.592c-0.287,0.117-0.66,0.177-1.121,0.177
		c-0.889,0-1.561-0.232-2.018-0.697c-0.454-0.465-0.683-1.066-0.683-1.803c0-0.687,0.221-1.232,0.66-1.644
		c0.48-0.448,1.17-0.674,2.07-0.674h1.887v-0.399c0-0.439-0.113-0.761-0.344-0.957c-0.229-0.201-0.612-0.302-1.144-0.302
		c-0.39,0-0.688,0.047-0.891,0.14c-0.205,0.092-0.42,0.266-0.645,0.521l-1.273-1.242c0.389-0.42,0.792-0.709,1.211-0.866
		c0.42-0.158,0.979-0.238,1.674-0.238c2.271,0,3.406,0.94,3.406,2.824v5.26H496.155z M494.159,114.017v-0.431h-1.58
		c-0.746,0-1.118,0.302-1.118,0.904c0,0.613,0.384,0.922,1.149,0.922c0.317,0,0.562-0.022,0.736-0.07
		c0.174-0.047,0.354-0.155,0.537-0.329C494.066,114.838,494.159,114.506,494.159,114.017z"/>
	<path fill="#AC1F50" d="M504.777,113.586h-5.001c0,0.531,0.152,0.961,0.46,1.287c0.308,0.328,0.736,0.492,1.288,0.492
		c0.41,0,0.744-0.057,1.006-0.168c0.26-0.113,0.529-0.307,0.806-0.584l1.212,1.182c-0.439,0.439-0.883,0.761-1.327,0.959
		c-0.444,0.199-1.015,0.3-1.709,0.3c-1.097,0-1.949-0.277-2.563-0.828c-0.757-0.677-1.136-1.767-1.136-3.269
		c0-1.278,0.317-2.278,0.951-3c0.635-0.721,1.479-1.082,2.532-1.082c1.084,0,1.942,0.363,2.576,1.09
		c0.604,0.695,0.905,1.605,0.905,2.73V113.586z M502.813,112.222c0-0.277-0.059-0.554-0.176-0.83
		c-0.119-0.274-0.289-0.488-0.515-0.638c-0.227-0.146-0.502-0.223-0.828-0.223c-0.328,0-0.604,0.076-0.829,0.223
		c-0.226,0.148-0.396,0.361-0.515,0.638c-0.117,0.276-0.176,0.553-0.176,0.83H502.813z"/>
	<path fill="#AC1F50" d="M508.49,107.603h-1.995v-1.625h1.995V107.603z M508.49,116.961h-1.995v-7.994h1.995V116.961z"/>
	<path fill="#AC1F50" d="M514.044,116.961h-1.137c-0.767,0-1.359-0.235-1.779-0.705c-0.367-0.42-0.553-0.946-0.553-1.582v-8.637
		h1.995v8.517c0,0.479,0.234,0.721,0.705,0.721h0.769V116.961L514.044,116.961z"/>
	<path fill="#AC1F50" d="M517.757,116.961h-2.285v-2.271h2.285V116.961z"/>
	<path fill="#AC1F50" d="M525.641,115.963c-0.695,0.728-1.574,1.091-2.639,1.091c-0.961,0-1.755-0.277-2.377-0.828
		c-0.798-0.707-1.197-1.795-1.197-3.269c0-1.473,0.395-2.557,1.182-3.254c0.623-0.551,1.422-0.828,2.394-0.828
		c1.073,0,1.952,0.357,2.639,1.074l-1.351,1.35c-0.204-0.225-0.405-0.385-0.604-0.481s-0.428-0.146-0.684-0.146
		c-0.472,0-0.851,0.18-1.144,0.537c-0.291,0.358-0.438,0.94-0.438,1.75c0,0.817,0.146,1.406,0.438,1.764
		c0.293,0.357,0.672,0.537,1.144,0.537c0.471,0,0.899-0.209,1.288-0.629L525.641,115.963z"/>
	<path fill="#AC1F50" d="M533.527,112.958c0,0.797-0.061,1.422-0.184,1.871s-0.363,0.863-0.722,1.242
		c-0.276,0.297-0.619,0.535-1.028,0.715c-0.408,0.178-0.896,0.269-1.457,0.269c-0.554,0-1.033-0.091-1.441-0.269
		c-0.41-0.18-0.754-0.418-1.028-0.715c-0.349-0.357-0.587-0.775-0.714-1.25c-0.129-0.477-0.19-1.098-0.19-1.863
		c0-0.789,0.061-1.406,0.184-1.856c0.123-0.449,0.363-0.863,0.722-1.242c0.274-0.297,0.6-0.526,0.967-0.69
		c0.438-0.193,0.94-0.291,1.504-0.291c0.553,0,1.053,0.098,1.504,0.291c0.379,0.164,0.705,0.395,0.982,0.69
		c0.348,0.356,0.584,0.774,0.713,1.25C533.464,111.584,533.527,112.202,533.527,112.958z M531.533,112.958
		c0-0.522-0.024-0.924-0.075-1.205c-0.054-0.28-0.181-0.522-0.386-0.729c-0.235-0.234-0.549-0.354-0.936-0.354
		c-0.379,0-0.687,0.119-0.92,0.354c-0.185,0.184-0.308,0.432-0.369,0.744s-0.092,0.707-0.092,1.189c0,0.645,0.034,1.088,0.106,1.334
		s0.189,0.451,0.354,0.612c0.233,0.236,0.541,0.354,0.92,0.354c0.387,0,0.699-0.117,0.936-0.354
		c0.185-0.184,0.308-0.432,0.369-0.743C531.503,113.851,531.533,113.45,531.533,112.958z"/>
	<path fill="#AC1F50" d="M546.63,116.961h-1.994v-4.834c0-0.5-0.14-0.879-0.414-1.135c-0.234-0.215-0.537-0.322-0.904-0.322
		c-0.359,0-0.656,0.104-0.891,0.308c-0.295,0.256-0.445,0.625-0.445,1.104v4.879h-1.994v-4.834c0-0.5-0.137-0.879-0.414-1.135
		c-0.235-0.215-0.537-0.322-0.906-0.322c-0.377,0-0.68,0.104-0.903,0.308c-0.287,0.256-0.431,0.642-0.431,1.149v4.834h-1.993v-7.994
		h1.948v0.736c0.254-0.266,0.558-0.471,0.904-0.613c0.347-0.141,0.711-0.215,1.09-0.215c0.92,0,1.627,0.338,2.117,1.015
		c0.646-0.677,1.441-1.015,2.393-1.015c0.398,0,0.771,0.062,1.113,0.185c0.342,0.123,0.625,0.297,0.853,0.522
		c0.307,0.308,0.528,0.646,0.666,1.021c0.139,0.373,0.207,0.789,0.207,1.25L546.63,116.961L546.63,116.961z"/>
</g>
</svg>
